<mxfile host="app.diagrams.net" agent="Mozilla/5.0 (Windows NT 10.0; Win64; x64) AppleWebKit/537.36 (KHTML, like Gecko) Chrome/137.0.0.0 Safari/537.36" version="27.1.6">
  <diagram name="Page-1" id="MBKn81-1h-AFhmsZndzZ">
    <mxGraphModel grid="1" page="1" gridSize="10" guides="1" tooltips="1" connect="1" arrows="1" fold="1" pageScale="1" pageWidth="1920" pageHeight="1200" math="0" shadow="0">
      <root>
        <mxCell id="0" />
        <mxCell id="1" parent="0" />
        <mxCell id="7aAfN3DZgnqvHJ7jnJ5I-2" value="&lt;font style=&quot;font-size: 32px;&quot;&gt;&lt;b&gt;Extract, Load, Transform&lt;/b&gt;&lt;/font&gt;" style="text;html=1;align=center;verticalAlign=middle;whiteSpace=wrap;rounded=0;" vertex="1" parent="1">
          <mxGeometry x="450" y="100" width="430" height="50" as="geometry" />
        </mxCell>
        <mxCell id="7aAfN3DZgnqvHJ7jnJ5I-5" value="&lt;span style=&quot;color: rgb(51, 51, 51);&quot;&gt;&lt;font style=&quot;font-size: 27px;&quot;&gt;ETL&lt;/font&gt;&lt;/span&gt;" style="ellipse;whiteSpace=wrap;html=1;fillColor=#f5f5f5;fontColor=#333333;strokeColor=#666666;sketch=1;curveFitting=1;jiggle=2;fillStyle=hachure;fontStyle=1;fontFamily=Comic Sans MS;" vertex="1" parent="1">
          <mxGeometry x="1000" y="490" width="120" height="110" as="geometry" />
        </mxCell>
        <mxCell id="7aAfN3DZgnqvHJ7jnJ5I-6" value="&lt;font style=&quot;font-size: 24px;&quot;&gt;&lt;b&gt;L&lt;/b&gt;oad&lt;/font&gt;" style="ellipse;whiteSpace=wrap;html=1;fillColor=#dae8fc;strokeColor=#6c8ebf;sketch=1;curveFitting=1;jiggle=2;fillStyle=hachure;fontFamily=Comic Sans MS;perimeterSpacing=0;strokeWidth=1;" vertex="1" parent="1">
          <mxGeometry x="1130" y="390" width="140" height="60" as="geometry" />
        </mxCell>
        <mxCell id="7aAfN3DZgnqvHJ7jnJ5I-7" value="&lt;font style=&quot;font-size: 24px;&quot;&gt;&lt;b style=&quot;&quot;&gt;Ex&lt;/b&gt;traction&lt;/font&gt;" style="ellipse;whiteSpace=wrap;html=1;fillColor=#d5e8d4;strokeColor=#82b366;sketch=1;curveFitting=1;jiggle=2;fillStyle=hachure;fontFamily=Comic Sans MS;strokeWidth=1;" vertex="1" parent="1">
          <mxGeometry x="810" y="410" width="140" height="70" as="geometry" />
        </mxCell>
        <mxCell id="7aAfN3DZgnqvHJ7jnJ5I-8" value="&lt;span style=&quot;font-size: 24px;&quot;&gt;&lt;b&gt;T&lt;/b&gt;ransformation&lt;/span&gt;" style="ellipse;whiteSpace=wrap;html=1;fillColor=#f8cecc;strokeColor=#b85450;sketch=1;curveFitting=1;jiggle=2;fillStyle=hachure;fontFamily=Comic Sans MS;" vertex="1" parent="1">
          <mxGeometry x="900" y="660" width="210" height="110" as="geometry" />
        </mxCell>
        <mxCell id="7aAfN3DZgnqvHJ7jnJ5I-10" value="&lt;font style=&quot;font-size: 16px;&quot;&gt;Extraction Methods&lt;/font&gt;" style="rounded=1;whiteSpace=wrap;html=1;fontFamily=Comic Sans MS;sketch=1;curveFitting=1;jiggle=2;fillColor=none;strokeColor=#82b366;shadow=0;glass=0;strokeWidth=2;" vertex="1" parent="1">
          <mxGeometry x="810" y="292.5" width="105" height="60" as="geometry" />
        </mxCell>
        <mxCell id="7aAfN3DZgnqvHJ7jnJ5I-11" style="edgeStyle=orthogonalEdgeStyle;rounded=0;orthogonalLoop=1;jettySize=auto;html=1;exitX=0.75;exitY=1;exitDx=0;exitDy=0;entryX=0.751;entryY=0.833;entryDx=0;entryDy=0;entryPerimeter=0;" edge="1" parent="1" source="7aAfN3DZgnqvHJ7jnJ5I-10" target="7aAfN3DZgnqvHJ7jnJ5I-10">
          <mxGeometry relative="1" as="geometry" />
        </mxCell>
        <mxCell id="7aAfN3DZgnqvHJ7jnJ5I-12" value="&lt;font style=&quot;font-size: 16px;&quot;&gt;Push Extraction&lt;/font&gt;" style="rounded=0;whiteSpace=wrap;html=1;fillColor=none;fontFamily=Comic Sans MS;sketch=1;curveFitting=1;jiggle=2;strokeColor=#82b366;strokeWidth=1;" vertex="1" parent="1">
          <mxGeometry x="830" y="170" width="90" height="50" as="geometry" />
        </mxCell>
        <mxCell id="7aAfN3DZgnqvHJ7jnJ5I-13" value="&lt;font style=&quot;font-size: 16px;&quot;&gt;Pull Extraction&lt;/font&gt;" style="rounded=0;whiteSpace=wrap;html=1;fillColor=none;fontFamily=Comic Sans MS;sketch=1;curveFitting=1;jiggle=2;strokeColor=#82b366;strokeWidth=1;" vertex="1" parent="1">
          <mxGeometry x="710" y="170" width="90" height="50" as="geometry" />
        </mxCell>
        <mxCell id="7aAfN3DZgnqvHJ7jnJ5I-14" value="&lt;font style=&quot;font-size: 16px;&quot;&gt;Extraction Types&lt;/font&gt;" style="rounded=1;whiteSpace=wrap;html=1;fontFamily=Comic Sans MS;sketch=1;curveFitting=1;jiggle=2;fillColor=none;strokeColor=#82b366;shadow=0;glass=0;strokeWidth=2;" vertex="1" parent="1">
          <mxGeometry x="650" y="350" width="105" height="60" as="geometry" />
        </mxCell>
        <mxCell id="7aAfN3DZgnqvHJ7jnJ5I-15" value="&lt;font style=&quot;font-size: 16px;&quot;&gt;Pull Extraction&lt;/font&gt;" style="rounded=0;whiteSpace=wrap;html=1;fillColor=none;fontFamily=Comic Sans MS;sketch=1;curveFitting=1;jiggle=2;strokeColor=#82b366;strokeWidth=1;" vertex="1" parent="1">
          <mxGeometry x="580" y="220" width="110" height="50" as="geometry" />
        </mxCell>
        <mxCell id="7aAfN3DZgnqvHJ7jnJ5I-16" value="&lt;font style=&quot;font-size: 16px;&quot;&gt;Incremental Extraction&lt;/font&gt;" style="rounded=0;whiteSpace=wrap;html=1;fillColor=none;fontFamily=Comic Sans MS;sketch=1;curveFitting=1;jiggle=2;strokeColor=#82b366;strokeWidth=1;" vertex="1" parent="1">
          <mxGeometry x="470" y="300" width="110" height="50" as="geometry" />
        </mxCell>
        <mxCell id="7aAfN3DZgnqvHJ7jnJ5I-17" value="&lt;font style=&quot;font-size: 16px;&quot;&gt;Extraction Techniques&lt;/font&gt;" style="rounded=1;whiteSpace=wrap;html=1;fontFamily=Comic Sans MS;sketch=1;curveFitting=1;jiggle=2;fillColor=none;strokeColor=#82b366;shadow=0;glass=0;strokeWidth=2;" vertex="1" parent="1">
          <mxGeometry x="670" y="470" width="105" height="60" as="geometry" />
        </mxCell>
        <mxCell id="7aAfN3DZgnqvHJ7jnJ5I-18" value="&lt;font style=&quot;font-size: 16px;&quot;&gt;Manual Extraction&lt;/font&gt;" style="rounded=0;whiteSpace=wrap;html=1;fillColor=none;fontFamily=Comic Sans MS;sketch=1;curveFitting=1;jiggle=2;strokeColor=#82b366;strokeWidth=1;" vertex="1" parent="1">
          <mxGeometry x="475" y="425" width="100" height="40" as="geometry" />
        </mxCell>
        <mxCell id="7aAfN3DZgnqvHJ7jnJ5I-19" value="&lt;font style=&quot;font-size: 16px;&quot;&gt;Database Querying&lt;/font&gt;" style="rounded=0;whiteSpace=wrap;html=1;fillColor=none;fontFamily=Comic Sans MS;sketch=1;curveFitting=1;jiggle=2;strokeColor=#82b366;strokeWidth=1;" vertex="1" parent="1">
          <mxGeometry x="430" y="500" width="90" height="50" as="geometry" />
        </mxCell>
        <mxCell id="7aAfN3DZgnqvHJ7jnJ5I-20" value="&lt;font style=&quot;font-size: 16px;&quot;&gt;File Parsing&lt;/font&gt;" style="rounded=0;whiteSpace=wrap;html=1;fillColor=none;fontFamily=Comic Sans MS;sketch=1;curveFitting=1;jiggle=2;strokeColor=#82b366;strokeWidth=1;" vertex="1" parent="1">
          <mxGeometry x="480" y="570" width="90" height="40" as="geometry" />
        </mxCell>
        <mxCell id="7aAfN3DZgnqvHJ7jnJ5I-21" value="&lt;font style=&quot;font-size: 16px;&quot;&gt;API Calls&lt;/font&gt;" style="rounded=0;whiteSpace=wrap;html=1;fillColor=none;fontFamily=Comic Sans MS;sketch=1;curveFitting=1;jiggle=2;strokeColor=#82b366;strokeWidth=1;" vertex="1" parent="1">
          <mxGeometry x="590" y="570" width="90" height="40" as="geometry" />
        </mxCell>
        <mxCell id="7aAfN3DZgnqvHJ7jnJ5I-22" value="&lt;font style=&quot;font-size: 16px;&quot;&gt;Event-Based Streaming&lt;/font&gt;" style="rounded=0;whiteSpace=wrap;html=1;fillColor=none;fontFamily=Comic Sans MS;sketch=1;curveFitting=1;jiggle=2;strokeColor=#82b366;strokeWidth=1;" vertex="1" parent="1">
          <mxGeometry x="765" y="630" width="105" height="50" as="geometry" />
        </mxCell>
        <mxCell id="7aAfN3DZgnqvHJ7jnJ5I-23" value="&lt;font style=&quot;font-size: 16px;&quot;&gt;CDC&lt;/font&gt;" style="rounded=0;whiteSpace=wrap;html=1;fillColor=none;fontFamily=Comic Sans MS;sketch=1;curveFitting=1;jiggle=2;strokeColor=#82b366;strokeWidth=1;" vertex="1" parent="1">
          <mxGeometry x="640" y="640" width="100" height="40" as="geometry" />
        </mxCell>
        <mxCell id="7aAfN3DZgnqvHJ7jnJ5I-24" value="&lt;font style=&quot;font-size: 16px;&quot;&gt;Web Scraping&lt;/font&gt;" style="rounded=0;whiteSpace=wrap;html=1;fillColor=none;fontFamily=Comic Sans MS;sketch=1;curveFitting=1;jiggle=2;strokeColor=#82b366;strokeWidth=1;" vertex="1" parent="1">
          <mxGeometry x="820" y="540" width="100" height="40" as="geometry" />
        </mxCell>
        <mxCell id="7aAfN3DZgnqvHJ7jnJ5I-27" value="&lt;h1 style=&quot;margin-top: 0px;&quot;&gt;&lt;font style=&quot;font-size: 18px;&quot;&gt;Change Data Capture&lt;/font&gt;&lt;/h1&gt;&lt;p&gt;&lt;font style=&quot;font-size: 16px;&quot;&gt;An ETL technique used to identify and track changes (inserts, updates, deletes) made to data in real-time or near real-time.&lt;/font&gt;&lt;/p&gt;" style="text;html=1;whiteSpace=wrap;overflow=hidden;rounded=0;" vertex="1" parent="1">
          <mxGeometry x="440" y="700" width="220" height="150" as="geometry" />
        </mxCell>
        <mxCell id="7aAfN3DZgnqvHJ7jnJ5I-28" value="" style="endArrow=none;dashed=1;html=1;dashPattern=1 3;strokeWidth=2;rounded=0;entryX=0;entryY=1;entryDx=0;entryDy=0;exitX=0.5;exitY=0;exitDx=0;exitDy=0;" edge="1" parent="1" source="7aAfN3DZgnqvHJ7jnJ5I-27" target="7aAfN3DZgnqvHJ7jnJ5I-23">
          <mxGeometry width="50" height="50" relative="1" as="geometry">
            <mxPoint x="670" y="840" as="sourcePoint" />
            <mxPoint x="720" y="790" as="targetPoint" />
          </mxGeometry>
        </mxCell>
        <mxCell id="7aAfN3DZgnqvHJ7jnJ5I-29" value="" style="endArrow=classic;html=1;rounded=0;exitX=0.5;exitY=0;exitDx=0;exitDy=0;entryX=0.5;entryY=1;entryDx=0;entryDy=0;" edge="1" parent="1" source="7aAfN3DZgnqvHJ7jnJ5I-7" target="7aAfN3DZgnqvHJ7jnJ5I-10">
          <mxGeometry width="50" height="50" relative="1" as="geometry">
            <mxPoint x="740" y="450" as="sourcePoint" />
            <mxPoint x="790" y="400" as="targetPoint" />
          </mxGeometry>
        </mxCell>
        <mxCell id="7aAfN3DZgnqvHJ7jnJ5I-30" value="" style="endArrow=classic;html=1;rounded=0;entryX=0.5;entryY=1;entryDx=0;entryDy=0;" edge="1" parent="1" target="7aAfN3DZgnqvHJ7jnJ5I-13">
          <mxGeometry width="50" height="50" relative="1" as="geometry">
            <mxPoint x="820" y="290" as="sourcePoint" />
            <mxPoint x="833" y="280" as="targetPoint" />
          </mxGeometry>
        </mxCell>
        <mxCell id="7aAfN3DZgnqvHJ7jnJ5I-31" value="" style="endArrow=classic;html=1;rounded=0;entryX=0.5;entryY=1;entryDx=0;entryDy=0;exitX=0.634;exitY=0.027;exitDx=0;exitDy=0;exitPerimeter=0;" edge="1" parent="1" source="7aAfN3DZgnqvHJ7jnJ5I-10" target="7aAfN3DZgnqvHJ7jnJ5I-12">
          <mxGeometry width="50" height="50" relative="1" as="geometry">
            <mxPoint x="880" y="290" as="sourcePoint" />
            <mxPoint x="893" y="270" as="targetPoint" />
          </mxGeometry>
        </mxCell>
        <mxCell id="7aAfN3DZgnqvHJ7jnJ5I-32" value="" style="endArrow=classic;html=1;rounded=0;exitX=0;exitY=0;exitDx=0;exitDy=0;entryX=1;entryY=0.5;entryDx=0;entryDy=0;" edge="1" parent="1" source="7aAfN3DZgnqvHJ7jnJ5I-7" target="7aAfN3DZgnqvHJ7jnJ5I-14">
          <mxGeometry width="50" height="50" relative="1" as="geometry">
            <mxPoint x="680" y="340" as="sourcePoint" />
            <mxPoint x="683" y="290" as="targetPoint" />
          </mxGeometry>
        </mxCell>
        <mxCell id="7aAfN3DZgnqvHJ7jnJ5I-33" value="" style="endArrow=classic;html=1;rounded=0;exitX=0.5;exitY=0;exitDx=0;exitDy=0;entryX=0.5;entryY=1;entryDx=0;entryDy=0;" edge="1" parent="1" source="7aAfN3DZgnqvHJ7jnJ5I-14" target="7aAfN3DZgnqvHJ7jnJ5I-15">
          <mxGeometry width="50" height="50" relative="1" as="geometry">
            <mxPoint x="680" y="320" as="sourcePoint" />
            <mxPoint x="683" y="270" as="targetPoint" />
          </mxGeometry>
        </mxCell>
        <mxCell id="7aAfN3DZgnqvHJ7jnJ5I-34" value="" style="endArrow=classic;html=1;rounded=0;exitX=0;exitY=0;exitDx=0;exitDy=0;entryX=1;entryY=0.5;entryDx=0;entryDy=0;" edge="1" parent="1" source="7aAfN3DZgnqvHJ7jnJ5I-14" target="7aAfN3DZgnqvHJ7jnJ5I-16">
          <mxGeometry width="50" height="50" relative="1" as="geometry">
            <mxPoint x="620" y="430" as="sourcePoint" />
            <mxPoint x="623" y="380" as="targetPoint" />
          </mxGeometry>
        </mxCell>
        <mxCell id="7aAfN3DZgnqvHJ7jnJ5I-35" value="" style="endArrow=classic;html=1;rounded=0;exitX=0;exitY=1;exitDx=0;exitDy=0;entryX=1;entryY=0.25;entryDx=0;entryDy=0;" edge="1" parent="1" source="7aAfN3DZgnqvHJ7jnJ5I-7" target="7aAfN3DZgnqvHJ7jnJ5I-17">
          <mxGeometry width="50" height="50" relative="1" as="geometry">
            <mxPoint x="710" y="520" as="sourcePoint" />
            <mxPoint x="713" y="470" as="targetPoint" />
          </mxGeometry>
        </mxCell>
        <mxCell id="7aAfN3DZgnqvHJ7jnJ5I-36" value="" style="endArrow=classic;html=1;rounded=0;exitX=0;exitY=0;exitDx=0;exitDy=0;entryX=1;entryY=0.5;entryDx=0;entryDy=0;" edge="1" parent="1" source="7aAfN3DZgnqvHJ7jnJ5I-17" target="7aAfN3DZgnqvHJ7jnJ5I-18">
          <mxGeometry width="50" height="50" relative="1" as="geometry">
            <mxPoint x="670" y="570" as="sourcePoint" />
            <mxPoint x="673" y="520" as="targetPoint" />
          </mxGeometry>
        </mxCell>
        <mxCell id="7aAfN3DZgnqvHJ7jnJ5I-38" value="" style="endArrow=classic;html=1;rounded=0;exitX=0;exitY=0.25;exitDx=0;exitDy=0;entryX=1;entryY=0.25;entryDx=0;entryDy=0;" edge="1" parent="1" source="7aAfN3DZgnqvHJ7jnJ5I-17" target="7aAfN3DZgnqvHJ7jnJ5I-19">
          <mxGeometry width="50" height="50" relative="1" as="geometry">
            <mxPoint x="610" y="560" as="sourcePoint" />
            <mxPoint x="613" y="510" as="targetPoint" />
          </mxGeometry>
        </mxCell>
        <mxCell id="7aAfN3DZgnqvHJ7jnJ5I-39" value="" style="endArrow=classic;html=1;rounded=0;exitX=0;exitY=0.5;exitDx=0;exitDy=0;entryX=0.5;entryY=0;entryDx=0;entryDy=0;" edge="1" parent="1" source="7aAfN3DZgnqvHJ7jnJ5I-17" target="7aAfN3DZgnqvHJ7jnJ5I-20">
          <mxGeometry width="50" height="50" relative="1" as="geometry">
            <mxPoint x="640" y="580" as="sourcePoint" />
            <mxPoint x="643" y="530" as="targetPoint" />
          </mxGeometry>
        </mxCell>
        <mxCell id="7aAfN3DZgnqvHJ7jnJ5I-40" value="" style="endArrow=classic;html=1;rounded=0;exitX=0;exitY=1;exitDx=0;exitDy=0;entryX=0.5;entryY=0;entryDx=0;entryDy=0;" edge="1" parent="1" source="7aAfN3DZgnqvHJ7jnJ5I-17" target="7aAfN3DZgnqvHJ7jnJ5I-21">
          <mxGeometry width="50" height="50" relative="1" as="geometry">
            <mxPoint x="700" y="620" as="sourcePoint" />
            <mxPoint x="703" y="570" as="targetPoint" />
          </mxGeometry>
        </mxCell>
        <mxCell id="7aAfN3DZgnqvHJ7jnJ5I-41" value="" style="endArrow=classic;html=1;rounded=0;exitX=0.25;exitY=1;exitDx=0;exitDy=0;entryX=0.5;entryY=0;entryDx=0;entryDy=0;" edge="1" parent="1" source="7aAfN3DZgnqvHJ7jnJ5I-17" target="7aAfN3DZgnqvHJ7jnJ5I-23">
          <mxGeometry width="50" height="50" relative="1" as="geometry">
            <mxPoint x="730" y="630" as="sourcePoint" />
            <mxPoint x="700" y="590" as="targetPoint" />
          </mxGeometry>
        </mxCell>
        <mxCell id="7aAfN3DZgnqvHJ7jnJ5I-42" value="" style="endArrow=classic;html=1;rounded=0;exitX=0.5;exitY=1;exitDx=0;exitDy=0;entryX=0.25;entryY=0;entryDx=0;entryDy=0;" edge="1" parent="1" source="7aAfN3DZgnqvHJ7jnJ5I-17" target="7aAfN3DZgnqvHJ7jnJ5I-22">
          <mxGeometry width="50" height="50" relative="1" as="geometry">
            <mxPoint x="750" y="630" as="sourcePoint" />
            <mxPoint x="753" y="580" as="targetPoint" />
          </mxGeometry>
        </mxCell>
        <mxCell id="7aAfN3DZgnqvHJ7jnJ5I-43" value="" style="endArrow=classic;html=1;rounded=0;exitX=1;exitY=1;exitDx=0;exitDy=0;entryX=0;entryY=0.5;entryDx=0;entryDy=0;" edge="1" parent="1" source="7aAfN3DZgnqvHJ7jnJ5I-17" target="7aAfN3DZgnqvHJ7jnJ5I-24">
          <mxGeometry width="50" height="50" relative="1" as="geometry">
            <mxPoint x="810" y="570" as="sourcePoint" />
            <mxPoint x="813" y="520" as="targetPoint" />
          </mxGeometry>
        </mxCell>
        <mxCell id="7aAfN3DZgnqvHJ7jnJ5I-45" value="" style="endArrow=classic;html=1;rounded=0;exitX=0;exitY=0;exitDx=0;exitDy=0;entryX=0.953;entryY=0.697;entryDx=0;entryDy=0;entryPerimeter=0;" edge="1" parent="1" source="7aAfN3DZgnqvHJ7jnJ5I-5" target="7aAfN3DZgnqvHJ7jnJ5I-7">
          <mxGeometry width="50" height="50" relative="1" as="geometry">
            <mxPoint x="1060" y="500" as="sourcePoint" />
            <mxPoint x="1063" y="450" as="targetPoint" />
          </mxGeometry>
        </mxCell>
        <mxCell id="7aAfN3DZgnqvHJ7jnJ5I-46" value="" style="endArrow=classic;html=1;rounded=0;exitX=0.815;exitY=0.067;exitDx=0;exitDy=0;entryX=0;entryY=1;entryDx=0;entryDy=0;exitPerimeter=0;" edge="1" parent="1" source="7aAfN3DZgnqvHJ7jnJ5I-5" target="7aAfN3DZgnqvHJ7jnJ5I-6">
          <mxGeometry width="50" height="50" relative="1" as="geometry">
            <mxPoint x="1100" y="480" as="sourcePoint" />
            <mxPoint x="1103" y="430" as="targetPoint" />
          </mxGeometry>
        </mxCell>
        <mxCell id="7aAfN3DZgnqvHJ7jnJ5I-47" value="&lt;font style=&quot;font-size: 16px;&quot;&gt;Processing Types&lt;/font&gt;" style="rounded=1;whiteSpace=wrap;html=1;fontFamily=Comic Sans MS;sketch=1;curveFitting=1;jiggle=2;fillColor=none;strokeColor=#6c8ebf;shadow=0;glass=0;strokeWidth=2;" vertex="1" parent="1">
          <mxGeometry x="1080" y="280" width="105" height="55" as="geometry" />
        </mxCell>
        <mxCell id="7aAfN3DZgnqvHJ7jnJ5I-48" value="&lt;span style=&quot;font-size: 16px;&quot;&gt;Batch Processing&lt;/span&gt;" style="rounded=0;whiteSpace=wrap;html=1;fillColor=none;fontFamily=Comic Sans MS;sketch=1;curveFitting=1;jiggle=2;strokeColor=#6c8ebf;strokeWidth=1;" vertex="1" parent="1">
          <mxGeometry x="990" y="170" width="110" height="50" as="geometry" />
        </mxCell>
        <mxCell id="7aAfN3DZgnqvHJ7jnJ5I-49" value="&lt;span style=&quot;font-size: 16px;&quot;&gt;Stream Processing&lt;/span&gt;" style="rounded=0;whiteSpace=wrap;html=1;fillColor=none;fontFamily=Comic Sans MS;sketch=1;curveFitting=1;jiggle=2;strokeColor=#6c8ebf;strokeWidth=1;" vertex="1" parent="1">
          <mxGeometry x="1145" y="170" width="110" height="50" as="geometry" />
        </mxCell>
        <mxCell id="7aAfN3DZgnqvHJ7jnJ5I-50" value="&lt;font style=&quot;font-size: 16px;&quot;&gt;Load Methods&lt;/font&gt;" style="rounded=1;whiteSpace=wrap;html=1;fontFamily=Comic Sans MS;sketch=1;curveFitting=1;jiggle=2;fillColor=none;strokeColor=#6c8ebf;shadow=0;glass=0;strokeWidth=2;" vertex="1" parent="1">
          <mxGeometry x="1255" y="290" width="105" height="55" as="geometry" />
        </mxCell>
        <mxCell id="7aAfN3DZgnqvHJ7jnJ5I-51" value="&lt;span style=&quot;font-size: 16px;&quot;&gt;Full Load&lt;/span&gt;" style="rounded=0;whiteSpace=wrap;html=1;fillColor=none;fontFamily=Comic Sans MS;sketch=1;curveFitting=1;jiggle=2;strokeColor=#6c8ebf;strokeWidth=1;" vertex="1" parent="1">
          <mxGeometry x="1390" y="210" width="110" height="40" as="geometry" />
        </mxCell>
        <mxCell id="7aAfN3DZgnqvHJ7jnJ5I-52" value="&lt;span style=&quot;font-size: 16px;&quot;&gt;Incremental Load&lt;/span&gt;" style="rounded=0;whiteSpace=wrap;html=1;fillColor=none;fontFamily=Comic Sans MS;sketch=1;curveFitting=1;jiggle=2;strokeColor=#6c8ebf;strokeWidth=2;" vertex="1" parent="1">
          <mxGeometry x="1390" y="350" width="110" height="50" as="geometry" />
        </mxCell>
        <mxCell id="7aAfN3DZgnqvHJ7jnJ5I-55" value="&lt;span style=&quot;font-size: 16px;&quot;&gt;Truncate &amp;amp; Insert&lt;/span&gt;" style="rounded=0;whiteSpace=wrap;html=1;fillColor=none;fontFamily=Comic Sans MS;sketch=1;curveFitting=1;jiggle=2;strokeColor=#6c8ebf;strokeWidth=1;" vertex="1" parent="1">
          <mxGeometry x="1560" y="170" width="180" height="30" as="geometry" />
        </mxCell>
        <mxCell id="7aAfN3DZgnqvHJ7jnJ5I-56" value="&lt;span style=&quot;font-size: 16px;&quot;&gt;Upsert&lt;/span&gt;" style="rounded=0;whiteSpace=wrap;html=1;fillColor=none;fontFamily=Comic Sans MS;sketch=1;curveFitting=1;jiggle=2;strokeColor=#6c8ebf;strokeWidth=1;" vertex="1" parent="1">
          <mxGeometry x="1560" y="220" width="180" height="30" as="geometry" />
        </mxCell>
        <mxCell id="7aAfN3DZgnqvHJ7jnJ5I-57" value="&lt;span style=&quot;font-size: 16px;&quot;&gt;Drop, Create, Insert&lt;/span&gt;" style="rounded=0;whiteSpace=wrap;html=1;fillColor=none;fontFamily=Comic Sans MS;sketch=1;curveFitting=1;jiggle=2;strokeColor=#6c8ebf;strokeWidth=1;" vertex="1" parent="1">
          <mxGeometry x="1560" y="270" width="180" height="30" as="geometry" />
        </mxCell>
        <mxCell id="7aAfN3DZgnqvHJ7jnJ5I-58" value="&lt;span style=&quot;font-size: 16px;&quot;&gt;Upsert&lt;/span&gt;" style="rounded=0;whiteSpace=wrap;html=1;fillColor=none;fontFamily=Comic Sans MS;sketch=1;curveFitting=1;jiggle=2;strokeColor=#6c8ebf;strokeWidth=1;" vertex="1" parent="1">
          <mxGeometry x="1560" y="320" width="120" height="30" as="geometry" />
        </mxCell>
        <mxCell id="7aAfN3DZgnqvHJ7jnJ5I-59" value="&lt;span style=&quot;font-size: 16px;&quot;&gt;Append&lt;/span&gt;" style="rounded=0;whiteSpace=wrap;html=1;fillColor=none;fontFamily=Comic Sans MS;sketch=1;curveFitting=1;jiggle=2;strokeColor=#6c8ebf;strokeWidth=1;" vertex="1" parent="1">
          <mxGeometry x="1560" y="360" width="120" height="30" as="geometry" />
        </mxCell>
        <mxCell id="7aAfN3DZgnqvHJ7jnJ5I-60" value="&lt;span style=&quot;font-size: 16px;&quot;&gt;Merge&lt;/span&gt;" style="rounded=0;whiteSpace=wrap;html=1;fillColor=none;fontFamily=Comic Sans MS;sketch=1;curveFitting=1;jiggle=2;strokeColor=#6c8ebf;strokeWidth=1;" vertex="1" parent="1">
          <mxGeometry x="1560" y="405" width="120" height="30" as="geometry" />
        </mxCell>
        <mxCell id="7aAfN3DZgnqvHJ7jnJ5I-61" value="&lt;span style=&quot;font-size: 16px;&quot;&gt;Slowly Changing&amp;nbsp;&amp;nbsp;&lt;/span&gt;&lt;span style=&quot;font-size: 16px; background-color: transparent; color: light-dark(rgb(0, 0, 0), rgb(255, 255, 255));&quot;&gt;Dimensions (SCD)&lt;/span&gt;" style="rounded=0;whiteSpace=wrap;html=1;fillColor=none;fontFamily=Comic Sans MS;sketch=1;curveFitting=1;jiggle=2;strokeColor=#6c8ebf;strokeWidth=2;" vertex="1" parent="1">
          <mxGeometry x="1187.5" y="500" width="240" height="50" as="geometry" />
        </mxCell>
        <mxCell id="7aAfN3DZgnqvHJ7jnJ5I-62" value="&lt;span style=&quot;font-size: 16px;&quot;&gt;SCD 0&lt;/span&gt;&lt;div&gt;&lt;span style=&quot;font-size: 16px;&quot;&gt;No Historization&lt;/span&gt;&lt;/div&gt;" style="rounded=0;whiteSpace=wrap;html=1;fillColor=none;fontFamily=Comic Sans MS;sketch=1;curveFitting=1;jiggle=2;strokeColor=#6c8ebf;strokeWidth=1;" vertex="1" parent="1">
          <mxGeometry x="1600" y="460" width="140" height="40" as="geometry" />
        </mxCell>
        <mxCell id="7aAfN3DZgnqvHJ7jnJ5I-63" value="&lt;span style=&quot;font-size: 16px;&quot;&gt;SCD 1&lt;/span&gt;&lt;div&gt;&lt;span style=&quot;font-size: 16px;&quot;&gt;Overwrite&lt;/span&gt;&lt;/div&gt;" style="rounded=0;whiteSpace=wrap;html=1;fillColor=none;fontFamily=Comic Sans MS;sketch=1;curveFitting=1;jiggle=2;strokeColor=#6c8ebf;strokeWidth=1;" vertex="1" parent="1">
          <mxGeometry x="1600" y="525" width="140" height="40" as="geometry" />
        </mxCell>
        <mxCell id="7aAfN3DZgnqvHJ7jnJ5I-65" value="&lt;span style=&quot;font-size: 16px;&quot;&gt;SCD 2&lt;/span&gt;&lt;div&gt;&lt;span style=&quot;font-size: 16px;&quot;&gt;Historization&lt;/span&gt;&lt;/div&gt;" style="rounded=0;whiteSpace=wrap;html=1;fillColor=none;fontFamily=Comic Sans MS;sketch=1;curveFitting=1;jiggle=2;strokeColor=#6c8ebf;strokeWidth=1;" vertex="1" parent="1">
          <mxGeometry x="1600" y="590" width="140" height="40" as="geometry" />
        </mxCell>
        <mxCell id="7aAfN3DZgnqvHJ7jnJ5I-66" value="&lt;span style=&quot;font-size: 16px;&quot;&gt;SCD ...&lt;br&gt;&lt;/span&gt;" style="rounded=0;whiteSpace=wrap;html=1;fillColor=none;fontFamily=Comic Sans MS;sketch=1;curveFitting=1;jiggle=2;strokeColor=#6c8ebf;strokeWidth=1;" vertex="1" parent="1">
          <mxGeometry x="1600" y="645" width="140" height="25" as="geometry" />
        </mxCell>
        <mxCell id="7aAfN3DZgnqvHJ7jnJ5I-68" value="" style="endArrow=classic;html=1;rounded=0;exitX=0;exitY=0;exitDx=0;exitDy=0;entryX=0.5;entryY=1;entryDx=0;entryDy=0;" edge="1" parent="1" source="7aAfN3DZgnqvHJ7jnJ5I-6" target="7aAfN3DZgnqvHJ7jnJ5I-47">
          <mxGeometry width="50" height="50" relative="1" as="geometry">
            <mxPoint x="1097" y="457" as="sourcePoint" />
            <mxPoint x="1080" y="400" as="targetPoint" />
          </mxGeometry>
        </mxCell>
        <mxCell id="7aAfN3DZgnqvHJ7jnJ5I-69" value="" style="endArrow=classic;html=1;rounded=0;exitX=1;exitY=0;exitDx=0;exitDy=0;entryX=0.5;entryY=1;entryDx=0;entryDy=0;" edge="1" parent="1" source="7aAfN3DZgnqvHJ7jnJ5I-6" target="7aAfN3DZgnqvHJ7jnJ5I-50">
          <mxGeometry width="50" height="50" relative="1" as="geometry">
            <mxPoint x="1087" y="437" as="sourcePoint" />
            <mxPoint x="1070" y="380" as="targetPoint" />
          </mxGeometry>
        </mxCell>
        <mxCell id="7aAfN3DZgnqvHJ7jnJ5I-70" value="" style="endArrow=classic;html=1;rounded=0;exitX=1;exitY=0.5;exitDx=0;exitDy=0;entryX=0;entryY=0.75;entryDx=0;entryDy=0;" edge="1" parent="1" source="7aAfN3DZgnqvHJ7jnJ5I-6" target="7aAfN3DZgnqvHJ7jnJ5I-52">
          <mxGeometry width="50" height="50" relative="1" as="geometry">
            <mxPoint x="1277" y="547" as="sourcePoint" />
            <mxPoint x="1260" y="490" as="targetPoint" />
          </mxGeometry>
        </mxCell>
        <mxCell id="7aAfN3DZgnqvHJ7jnJ5I-71" value="" style="endArrow=classic;html=1;rounded=0;exitX=0.623;exitY=0.993;exitDx=0;exitDy=0;entryX=0.25;entryY=0;entryDx=0;entryDy=0;exitPerimeter=0;" edge="1" parent="1" source="7aAfN3DZgnqvHJ7jnJ5I-6" target="7aAfN3DZgnqvHJ7jnJ5I-61">
          <mxGeometry width="50" height="50" relative="1" as="geometry">
            <mxPoint x="1277" y="527" as="sourcePoint" />
            <mxPoint x="1260" y="470" as="targetPoint" />
          </mxGeometry>
        </mxCell>
        <mxCell id="7aAfN3DZgnqvHJ7jnJ5I-72" value="" style="endArrow=classic;html=1;rounded=0;exitX=0.25;exitY=0;exitDx=0;exitDy=0;entryX=0.5;entryY=1;entryDx=0;entryDy=0;" edge="1" parent="1" source="7aAfN3DZgnqvHJ7jnJ5I-47" target="7aAfN3DZgnqvHJ7jnJ5I-48">
          <mxGeometry width="50" height="50" relative="1" as="geometry">
            <mxPoint x="1018" y="394" as="sourcePoint" />
            <mxPoint x="1000" y="330" as="targetPoint" />
          </mxGeometry>
        </mxCell>
        <mxCell id="7aAfN3DZgnqvHJ7jnJ5I-73" value="" style="endArrow=classic;html=1;rounded=0;entryX=0.5;entryY=1;entryDx=0;entryDy=0;" edge="1" parent="1" target="7aAfN3DZgnqvHJ7jnJ5I-49">
          <mxGeometry width="50" height="50" relative="1" as="geometry">
            <mxPoint x="1150" y="290" as="sourcePoint" />
            <mxPoint x="1020" y="360" as="targetPoint" />
          </mxGeometry>
        </mxCell>
        <mxCell id="7aAfN3DZgnqvHJ7jnJ5I-74" value="" style="endArrow=classic;html=1;rounded=0;exitX=1;exitY=0;exitDx=0;exitDy=0;entryX=0.25;entryY=1;entryDx=0;entryDy=0;" edge="1" parent="1" source="7aAfN3DZgnqvHJ7jnJ5I-50" target="7aAfN3DZgnqvHJ7jnJ5I-51">
          <mxGeometry width="50" height="50" relative="1" as="geometry">
            <mxPoint x="1348" y="314" as="sourcePoint" />
            <mxPoint x="1330" y="250" as="targetPoint" />
          </mxGeometry>
        </mxCell>
        <mxCell id="7aAfN3DZgnqvHJ7jnJ5I-75" value="" style="endArrow=classic;html=1;rounded=0;exitX=1;exitY=0.25;exitDx=0;exitDy=0;entryX=0;entryY=0.5;entryDx=0;entryDy=0;" edge="1" parent="1" source="7aAfN3DZgnqvHJ7jnJ5I-51" target="7aAfN3DZgnqvHJ7jnJ5I-55">
          <mxGeometry width="50" height="50" relative="1" as="geometry">
            <mxPoint x="1408" y="384" as="sourcePoint" />
            <mxPoint x="1390" y="320" as="targetPoint" />
          </mxGeometry>
        </mxCell>
        <mxCell id="7aAfN3DZgnqvHJ7jnJ5I-76" value="" style="endArrow=classic;html=1;rounded=0;exitX=1;exitY=0.5;exitDx=0;exitDy=0;entryX=0;entryY=0.5;entryDx=0;entryDy=0;" edge="1" parent="1" source="7aAfN3DZgnqvHJ7jnJ5I-51" target="7aAfN3DZgnqvHJ7jnJ5I-56">
          <mxGeometry width="50" height="50" relative="1" as="geometry">
            <mxPoint x="1528" y="304" as="sourcePoint" />
            <mxPoint x="1510" y="240" as="targetPoint" />
          </mxGeometry>
        </mxCell>
        <mxCell id="7aAfN3DZgnqvHJ7jnJ5I-77" value="" style="endArrow=classic;html=1;rounded=0;entryX=0;entryY=0.5;entryDx=0;entryDy=0;exitX=1;exitY=0.75;exitDx=0;exitDy=0;" edge="1" parent="1" source="7aAfN3DZgnqvHJ7jnJ5I-51" target="7aAfN3DZgnqvHJ7jnJ5I-57">
          <mxGeometry width="50" height="50" relative="1" as="geometry">
            <mxPoint x="1500" y="230" as="sourcePoint" />
            <mxPoint x="1510" y="280" as="targetPoint" />
          </mxGeometry>
        </mxCell>
        <mxCell id="7aAfN3DZgnqvHJ7jnJ5I-78" value="" style="endArrow=classic;html=1;rounded=0;exitX=1;exitY=0.25;exitDx=0;exitDy=0;entryX=0;entryY=0.25;entryDx=0;entryDy=0;exitPerimeter=0;" edge="1" parent="1" source="7aAfN3DZgnqvHJ7jnJ5I-52" target="7aAfN3DZgnqvHJ7jnJ5I-58">
          <mxGeometry width="50" height="50" relative="1" as="geometry">
            <mxPoint x="1448" y="514" as="sourcePoint" />
            <mxPoint x="1430" y="450" as="targetPoint" />
          </mxGeometry>
        </mxCell>
        <mxCell id="7aAfN3DZgnqvHJ7jnJ5I-79" value="" style="endArrow=classic;html=1;rounded=0;exitX=1;exitY=0.5;exitDx=0;exitDy=0;entryX=0;entryY=0.5;entryDx=0;entryDy=0;" edge="1" parent="1" source="7aAfN3DZgnqvHJ7jnJ5I-52" target="7aAfN3DZgnqvHJ7jnJ5I-59">
          <mxGeometry width="50" height="50" relative="1" as="geometry">
            <mxPoint x="1428" y="554" as="sourcePoint" />
            <mxPoint x="1410" y="490" as="targetPoint" />
          </mxGeometry>
        </mxCell>
        <mxCell id="7aAfN3DZgnqvHJ7jnJ5I-80" value="" style="endArrow=classic;html=1;rounded=0;exitX=1;exitY=0.75;exitDx=0;exitDy=0;entryX=0;entryY=0.5;entryDx=0;entryDy=0;" edge="1" parent="1" source="7aAfN3DZgnqvHJ7jnJ5I-52" target="7aAfN3DZgnqvHJ7jnJ5I-60">
          <mxGeometry width="50" height="50" relative="1" as="geometry">
            <mxPoint x="1468" y="504" as="sourcePoint" />
            <mxPoint x="1450" y="440" as="targetPoint" />
          </mxGeometry>
        </mxCell>
        <mxCell id="7aAfN3DZgnqvHJ7jnJ5I-83" value="" style="endArrow=classic;html=1;rounded=0;exitX=1;exitY=0;exitDx=0;exitDy=0;entryX=0;entryY=0.5;entryDx=0;entryDy=0;" edge="1" parent="1" source="7aAfN3DZgnqvHJ7jnJ5I-61" target="7aAfN3DZgnqvHJ7jnJ5I-62">
          <mxGeometry width="50" height="50" relative="1" as="geometry">
            <mxPoint x="1398" y="504" as="sourcePoint" />
            <mxPoint x="1380" y="440" as="targetPoint" />
          </mxGeometry>
        </mxCell>
        <mxCell id="7aAfN3DZgnqvHJ7jnJ5I-84" value="" style="endArrow=classic;html=1;rounded=0;exitX=1;exitY=0.25;exitDx=0;exitDy=0;entryX=0;entryY=0.5;entryDx=0;entryDy=0;" edge="1" parent="1" source="7aAfN3DZgnqvHJ7jnJ5I-61" target="7aAfN3DZgnqvHJ7jnJ5I-63">
          <mxGeometry width="50" height="50" relative="1" as="geometry">
            <mxPoint x="1468" y="544" as="sourcePoint" />
            <mxPoint x="1450" y="480" as="targetPoint" />
          </mxGeometry>
        </mxCell>
        <mxCell id="7aAfN3DZgnqvHJ7jnJ5I-85" value="" style="endArrow=classic;html=1;rounded=0;exitX=1;exitY=0.5;exitDx=0;exitDy=0;entryX=0;entryY=0.5;entryDx=0;entryDy=0;" edge="1" parent="1" source="7aAfN3DZgnqvHJ7jnJ5I-61" target="7aAfN3DZgnqvHJ7jnJ5I-65">
          <mxGeometry width="50" height="50" relative="1" as="geometry">
            <mxPoint x="1438" y="654" as="sourcePoint" />
            <mxPoint x="1420" y="590" as="targetPoint" />
          </mxGeometry>
        </mxCell>
        <mxCell id="7aAfN3DZgnqvHJ7jnJ5I-86" value="" style="endArrow=classic;html=1;rounded=0;exitX=1;exitY=0.8;exitDx=0;exitDy=0;entryX=0;entryY=0.25;entryDx=0;entryDy=0;exitPerimeter=0;" edge="1" parent="1" source="7aAfN3DZgnqvHJ7jnJ5I-61" target="7aAfN3DZgnqvHJ7jnJ5I-66">
          <mxGeometry width="50" height="50" relative="1" as="geometry">
            <mxPoint x="1418" y="644" as="sourcePoint" />
            <mxPoint x="1400" y="580" as="targetPoint" />
          </mxGeometry>
        </mxCell>
        <mxCell id="7aAfN3DZgnqvHJ7jnJ5I-87" value="" style="endArrow=classic;html=1;rounded=0;exitX=0.277;exitY=0.973;exitDx=0;exitDy=0;entryX=0.629;entryY=0.048;entryDx=0;entryDy=0;exitPerimeter=0;entryPerimeter=0;" edge="1" parent="1" source="7aAfN3DZgnqvHJ7jnJ5I-5" target="7aAfN3DZgnqvHJ7jnJ5I-8">
          <mxGeometry width="50" height="50" relative="1" as="geometry">
            <mxPoint x="1038" y="684" as="sourcePoint" />
            <mxPoint x="1020" y="620" as="targetPoint" />
          </mxGeometry>
        </mxCell>
        <mxCell id="7aAfN3DZgnqvHJ7jnJ5I-88" value="&lt;font style=&quot;font-size: 16px;&quot;&gt;Data Enrichment&lt;/font&gt;" style="rounded=1;whiteSpace=wrap;html=1;fontFamily=Comic Sans MS;sketch=1;curveFitting=1;jiggle=2;fillColor=none;strokeColor=#b85450;shadow=0;glass=0;strokeWidth=2;" vertex="1" parent="1">
          <mxGeometry x="710" y="700" width="100" height="50" as="geometry" />
        </mxCell>
        <mxCell id="7aAfN3DZgnqvHJ7jnJ5I-89" value="&lt;font style=&quot;font-size: 16px;&quot;&gt;Data Integration&lt;/font&gt;" style="rounded=1;whiteSpace=wrap;html=1;fontFamily=Comic Sans MS;sketch=1;curveFitting=1;jiggle=2;fillColor=none;strokeColor=#b85450;shadow=0;glass=0;strokeWidth=2;" vertex="1" parent="1">
          <mxGeometry x="702.5" y="780" width="105" height="50" as="geometry" />
        </mxCell>
        <mxCell id="7aAfN3DZgnqvHJ7jnJ5I-90" value="&lt;font style=&quot;font-size: 16px;&quot;&gt;Derived Columns&lt;/font&gt;" style="rounded=1;whiteSpace=wrap;html=1;fontFamily=Comic Sans MS;sketch=1;curveFitting=1;jiggle=2;fillColor=none;strokeColor=#b85450;shadow=0;glass=0;strokeWidth=2;" vertex="1" parent="1">
          <mxGeometry x="810" y="850" width="105" height="50" as="geometry" />
        </mxCell>
        <mxCell id="7aAfN3DZgnqvHJ7jnJ5I-92" value="&lt;font style=&quot;font-size: 16px;&quot;&gt;Data Cleansing&lt;/font&gt;" style="rounded=1;whiteSpace=wrap;html=1;fontFamily=Comic Sans MS;sketch=1;curveFitting=1;jiggle=2;fillColor=none;strokeColor=#b85450;shadow=0;glass=0;strokeWidth=2;" vertex="1" parent="1">
          <mxGeometry x="1005" y="860" width="105" height="50" as="geometry" />
        </mxCell>
        <mxCell id="7aAfN3DZgnqvHJ7jnJ5I-93" value="&lt;span style=&quot;font-size: 16px;&quot;&gt;Data Normailzation &amp;amp; Standardization&lt;/span&gt;" style="rounded=1;whiteSpace=wrap;html=1;fontFamily=Comic Sans MS;sketch=1;curveFitting=1;jiggle=2;fillColor=none;strokeColor=#b85450;shadow=0;glass=0;strokeWidth=2;" vertex="1" parent="1">
          <mxGeometry x="1195" y="630" width="295" height="40" as="geometry" />
        </mxCell>
        <mxCell id="7aAfN3DZgnqvHJ7jnJ5I-94" value="&lt;span style=&quot;font-size: 16px;&quot;&gt;Business Rules &amp;amp; Logic&lt;/span&gt;" style="rounded=1;whiteSpace=wrap;html=1;fontFamily=Comic Sans MS;sketch=1;curveFitting=1;jiggle=2;fillColor=none;strokeColor=#b85450;shadow=0;glass=0;strokeWidth=2;" vertex="1" parent="1">
          <mxGeometry x="1200" y="690" width="180" height="40" as="geometry" />
        </mxCell>
        <mxCell id="7aAfN3DZgnqvHJ7jnJ5I-95" value="&lt;span style=&quot;font-size: 16px;&quot;&gt;Data Aggregation&lt;/span&gt;" style="rounded=1;whiteSpace=wrap;html=1;fontFamily=Comic Sans MS;sketch=1;curveFitting=1;jiggle=2;fillColor=none;strokeColor=#b85450;shadow=0;glass=0;strokeWidth=2;" vertex="1" parent="1">
          <mxGeometry x="1200" y="740" width="180" height="40" as="geometry" />
        </mxCell>
        <mxCell id="7aAfN3DZgnqvHJ7jnJ5I-98" value="&lt;font style=&quot;font-size: 16px;&quot;&gt;Remove Duplicates&lt;/font&gt;" style="rounded=0;whiteSpace=wrap;html=1;fillColor=none;fontFamily=Comic Sans MS;sketch=1;curveFitting=1;jiggle=2;strokeColor=#b85450;strokeWidth=1;" vertex="1" parent="1">
          <mxGeometry x="720" y="960" width="120" height="50" as="geometry" />
        </mxCell>
        <mxCell id="7aAfN3DZgnqvHJ7jnJ5I-99" value="&lt;font style=&quot;font-size: 16px;&quot;&gt;Data Filtering&lt;/font&gt;" style="rounded=0;whiteSpace=wrap;html=1;fillColor=none;fontFamily=Comic Sans MS;sketch=1;curveFitting=1;jiggle=2;strokeColor=#b85450;strokeWidth=1;" vertex="1" parent="1">
          <mxGeometry x="880" y="960" width="120" height="50" as="geometry" />
        </mxCell>
        <mxCell id="7aAfN3DZgnqvHJ7jnJ5I-100" value="&lt;font style=&quot;font-size: 16px;&quot;&gt;Handling Minssing Data&lt;/font&gt;" style="rounded=0;whiteSpace=wrap;html=1;fillColor=none;fontFamily=Comic Sans MS;sketch=1;curveFitting=1;jiggle=2;strokeColor=#b85450;strokeWidth=1;" vertex="1" parent="1">
          <mxGeometry x="1030" y="960" width="120" height="50" as="geometry" />
        </mxCell>
        <mxCell id="7aAfN3DZgnqvHJ7jnJ5I-102" value="&lt;font style=&quot;font-size: 16px;&quot;&gt;Handling Invalid Values&lt;/font&gt;" style="rounded=0;whiteSpace=wrap;html=1;fillColor=none;fontFamily=Comic Sans MS;sketch=1;curveFitting=1;jiggle=2;strokeColor=#b85450;strokeWidth=1;" vertex="1" parent="1">
          <mxGeometry x="1195" y="960" width="190" height="50" as="geometry" />
        </mxCell>
        <mxCell id="7aAfN3DZgnqvHJ7jnJ5I-103" value="&lt;font style=&quot;font-size: 16px;&quot;&gt;Handling Unwanted Spaces&lt;/font&gt;" style="rounded=0;whiteSpace=wrap;html=1;fillColor=none;fontFamily=Comic Sans MS;sketch=1;curveFitting=1;jiggle=2;strokeColor=#b85450;strokeWidth=1;" vertex="1" parent="1">
          <mxGeometry x="1255" y="900" width="250" height="40" as="geometry" />
        </mxCell>
        <mxCell id="7aAfN3DZgnqvHJ7jnJ5I-105" value="&lt;font style=&quot;font-size: 16px;&quot;&gt;Data Type Casting&lt;/font&gt;" style="rounded=0;whiteSpace=wrap;html=1;fillColor=none;fontFamily=Comic Sans MS;sketch=1;curveFitting=1;jiggle=2;strokeColor=#b85450;strokeWidth=1;" vertex="1" parent="1">
          <mxGeometry x="1290" y="850" width="180" height="30" as="geometry" />
        </mxCell>
        <mxCell id="7aAfN3DZgnqvHJ7jnJ5I-106" value="&lt;span style=&quot;font-size: 16px;&quot;&gt;Outlier Detection&lt;/span&gt;" style="rounded=0;whiteSpace=wrap;html=1;fillColor=none;fontFamily=Comic Sans MS;sketch=1;curveFitting=1;jiggle=2;strokeColor=#b85450;strokeWidth=1;" vertex="1" parent="1">
          <mxGeometry x="1290" y="800" width="180" height="30" as="geometry" />
        </mxCell>
        <mxCell id="7aAfN3DZgnqvHJ7jnJ5I-112" value="" style="endArrow=classic;html=1;rounded=0;exitX=0;exitY=0.5;exitDx=0;exitDy=0;entryX=1;entryY=0.5;entryDx=0;entryDy=0;" edge="1" parent="1" source="7aAfN3DZgnqvHJ7jnJ5I-8" target="7aAfN3DZgnqvHJ7jnJ5I-88">
          <mxGeometry width="50" height="50" relative="1" as="geometry">
            <mxPoint x="1091" y="810" as="sourcePoint" />
            <mxPoint x="930" y="810" as="targetPoint" />
          </mxGeometry>
        </mxCell>
        <mxCell id="7aAfN3DZgnqvHJ7jnJ5I-113" value="" style="endArrow=classic;html=1;rounded=0;exitX=0.04;exitY=0.7;exitDx=0;exitDy=0;entryX=1;entryY=0.5;entryDx=0;entryDy=0;exitPerimeter=0;" edge="1" parent="1" source="7aAfN3DZgnqvHJ7jnJ5I-8" target="7aAfN3DZgnqvHJ7jnJ5I-89">
          <mxGeometry width="50" height="50" relative="1" as="geometry">
            <mxPoint x="961" y="800" as="sourcePoint" />
            <mxPoint x="960" y="868" as="targetPoint" />
          </mxGeometry>
        </mxCell>
        <mxCell id="7aAfN3DZgnqvHJ7jnJ5I-114" value="" style="endArrow=classic;html=1;rounded=0;exitX=0;exitY=1;exitDx=0;exitDy=0;entryX=0.5;entryY=0;entryDx=0;entryDy=0;" edge="1" parent="1" source="7aAfN3DZgnqvHJ7jnJ5I-8" target="7aAfN3DZgnqvHJ7jnJ5I-90">
          <mxGeometry width="50" height="50" relative="1" as="geometry">
            <mxPoint x="971" y="800" as="sourcePoint" />
            <mxPoint x="970" y="868" as="targetPoint" />
          </mxGeometry>
        </mxCell>
        <mxCell id="7aAfN3DZgnqvHJ7jnJ5I-117" value="" style="endArrow=classic;html=1;rounded=0;exitX=0.5;exitY=1;exitDx=0;exitDy=0;entryX=0.25;entryY=0;entryDx=0;entryDy=0;" edge="1" parent="1" source="7aAfN3DZgnqvHJ7jnJ5I-8" target="7aAfN3DZgnqvHJ7jnJ5I-92">
          <mxGeometry width="50" height="50" relative="1" as="geometry">
            <mxPoint x="1021" y="790" as="sourcePoint" />
            <mxPoint x="1020" y="858" as="targetPoint" />
          </mxGeometry>
        </mxCell>
        <mxCell id="7aAfN3DZgnqvHJ7jnJ5I-118" value="" style="endArrow=classic;html=1;rounded=0;entryX=0;entryY=0.5;entryDx=0;entryDy=0;exitX=0.971;exitY=0.624;exitDx=0;exitDy=0;exitPerimeter=0;" edge="1" parent="1" source="7aAfN3DZgnqvHJ7jnJ5I-8" target="7aAfN3DZgnqvHJ7jnJ5I-95">
          <mxGeometry width="50" height="50" relative="1" as="geometry">
            <mxPoint x="1100" y="730" as="sourcePoint" />
            <mxPoint x="1160" y="858" as="targetPoint" />
          </mxGeometry>
        </mxCell>
        <mxCell id="7aAfN3DZgnqvHJ7jnJ5I-119" value="" style="endArrow=classic;html=1;rounded=0;exitX=0.993;exitY=0.375;exitDx=0;exitDy=0;entryX=0;entryY=0.5;entryDx=0;entryDy=0;exitPerimeter=0;" edge="1" parent="1" source="7aAfN3DZgnqvHJ7jnJ5I-8" target="7aAfN3DZgnqvHJ7jnJ5I-94">
          <mxGeometry width="50" height="50" relative="1" as="geometry">
            <mxPoint x="1161" y="810" as="sourcePoint" />
            <mxPoint x="1160" y="878" as="targetPoint" />
          </mxGeometry>
        </mxCell>
        <mxCell id="7aAfN3DZgnqvHJ7jnJ5I-120" value="" style="endArrow=classic;html=1;rounded=0;entryX=0;entryY=0.5;entryDx=0;entryDy=0;exitX=0.935;exitY=0.223;exitDx=0;exitDy=0;exitPerimeter=0;" edge="1" parent="1" source="7aAfN3DZgnqvHJ7jnJ5I-8" target="7aAfN3DZgnqvHJ7jnJ5I-93">
          <mxGeometry width="50" height="50" relative="1" as="geometry">
            <mxPoint x="1094" y="700" as="sourcePoint" />
            <mxPoint x="1180" y="888" as="targetPoint" />
          </mxGeometry>
        </mxCell>
        <mxCell id="7aAfN3DZgnqvHJ7jnJ5I-121" value="" style="endArrow=classic;html=1;rounded=0;entryX=0;entryY=0.5;entryDx=0;entryDy=0;exitX=1;exitY=0;exitDx=0;exitDy=0;" edge="1" parent="1" source="7aAfN3DZgnqvHJ7jnJ5I-92" target="7aAfN3DZgnqvHJ7jnJ5I-106">
          <mxGeometry width="50" height="50" relative="1" as="geometry">
            <mxPoint x="1180" y="800" as="sourcePoint" />
            <mxPoint x="1271" y="816" as="targetPoint" />
          </mxGeometry>
        </mxCell>
        <mxCell id="7aAfN3DZgnqvHJ7jnJ5I-122" value="" style="endArrow=classic;html=1;rounded=0;entryX=0;entryY=0.5;entryDx=0;entryDy=0;exitX=1;exitY=0.25;exitDx=0;exitDy=0;" edge="1" parent="1" source="7aAfN3DZgnqvHJ7jnJ5I-92" target="7aAfN3DZgnqvHJ7jnJ5I-105">
          <mxGeometry width="50" height="50" relative="1" as="geometry">
            <mxPoint x="1240" y="850" as="sourcePoint" />
            <mxPoint x="1331" y="866" as="targetPoint" />
          </mxGeometry>
        </mxCell>
        <mxCell id="7aAfN3DZgnqvHJ7jnJ5I-123" value="" style="endArrow=classic;html=1;rounded=0;entryX=0;entryY=0.5;entryDx=0;entryDy=0;exitX=1;exitY=0.5;exitDx=0;exitDy=0;" edge="1" parent="1" source="7aAfN3DZgnqvHJ7jnJ5I-92" target="7aAfN3DZgnqvHJ7jnJ5I-103">
          <mxGeometry width="50" height="50" relative="1" as="geometry">
            <mxPoint x="1230" y="880" as="sourcePoint" />
            <mxPoint x="1321" y="896" as="targetPoint" />
          </mxGeometry>
        </mxCell>
        <mxCell id="7aAfN3DZgnqvHJ7jnJ5I-125" value="" style="endArrow=classic;html=1;rounded=0;entryX=0.083;entryY=-0.05;entryDx=0;entryDy=0;exitX=1;exitY=1;exitDx=0;exitDy=0;entryPerimeter=0;" edge="1" parent="1" source="7aAfN3DZgnqvHJ7jnJ5I-92" target="7aAfN3DZgnqvHJ7jnJ5I-102">
          <mxGeometry width="50" height="50" relative="1" as="geometry">
            <mxPoint x="1250" y="900" as="sourcePoint" />
            <mxPoint x="1341" y="916" as="targetPoint" />
          </mxGeometry>
        </mxCell>
        <mxCell id="7aAfN3DZgnqvHJ7jnJ5I-127" value="" style="endArrow=classic;html=1;rounded=0;entryX=0.5;entryY=0;entryDx=0;entryDy=0;exitX=0.75;exitY=1;exitDx=0;exitDy=0;" edge="1" parent="1" source="7aAfN3DZgnqvHJ7jnJ5I-92" target="7aAfN3DZgnqvHJ7jnJ5I-100">
          <mxGeometry width="50" height="50" relative="1" as="geometry">
            <mxPoint x="1090" y="920" as="sourcePoint" />
            <mxPoint x="1181" y="936" as="targetPoint" />
          </mxGeometry>
        </mxCell>
        <mxCell id="7aAfN3DZgnqvHJ7jnJ5I-128" value="" style="endArrow=classic;html=1;rounded=0;entryX=1;entryY=0;entryDx=0;entryDy=0;exitX=0.25;exitY=1;exitDx=0;exitDy=0;" edge="1" parent="1" source="7aAfN3DZgnqvHJ7jnJ5I-92" target="7aAfN3DZgnqvHJ7jnJ5I-99">
          <mxGeometry width="50" height="50" relative="1" as="geometry">
            <mxPoint x="1030" y="930" as="sourcePoint" />
            <mxPoint x="1121" y="946" as="targetPoint" />
          </mxGeometry>
        </mxCell>
        <mxCell id="7aAfN3DZgnqvHJ7jnJ5I-129" value="" style="endArrow=classic;html=1;rounded=0;entryX=1;entryY=0;entryDx=0;entryDy=0;exitX=0;exitY=0.75;exitDx=0;exitDy=0;" edge="1" parent="1" source="7aAfN3DZgnqvHJ7jnJ5I-92" target="7aAfN3DZgnqvHJ7jnJ5I-98">
          <mxGeometry width="50" height="50" relative="1" as="geometry">
            <mxPoint x="915" y="912" as="sourcePoint" />
            <mxPoint x="1006" y="928" as="targetPoint" />
          </mxGeometry>
        </mxCell>
      </root>
    </mxGraphModel>
  </diagram>
</mxfile>
